<svg xmlns="http://www.w3.org/2000/svg" width="432" height="129" viewBox="0 0 432 129" version="1.1">
	<path d="M 272.508 1.197 C 272.250 1.914, 271.918 23.875, 271.770 50 L 271.500 97.500 268.812 103.235 C 264.968 111.437, 261.359 115.753, 255.567 119.075 C 251.518 121.397, 249.295 121.981, 244.500 121.981 C 239.705 121.981, 237.482 121.397, 233.433 119.075 C 224.920 114.192, 218.546 103.521, 217.359 92.164 L 216.715 86 240.858 86 L 265 86 265 82.485 L 265 78.970 235.250 79.235 L 205.500 79.500 205.190 83.802 C 204.448 94.091, 209.665 107.253, 217.722 115.418 C 220.400 118.132, 225.357 121.629, 229 123.375 C 234.798 126.154, 236.472 126.489, 244.500 126.479 C 252.150 126.470, 254.363 126.066, 259.253 123.788 C 270.802 118.408, 280.350 106.292, 282.950 93.719 C 283.653 90.323, 283.937 73.136, 283.765 44.500 L 283.500 0.500 278.239 0.197 C 274.598 -0.012, 272.833 0.296, 272.508 1.197 M 290 63.500 L 290 127 295.500 127 L 301 127 301 63.500 L 301 0 295.500 0 L 290 0 290 63.500 M 391.395 1.412 C 391.097 2.189, 391.010 23.001, 391.201 47.662 C 391.540 91.428, 391.603 92.653, 393.841 98.917 C 399.469 114.669, 411.735 124.879, 427.239 126.715 C 431.860 127.262, 432 127.201, 432 124.639 C 432 122.367, 431.578 122, 428.968 122 C 421.420 122, 412.810 115.418, 408.038 106 C 399.697 89.541, 401.998 68.863, 413.599 56.023 C 417.715 51.466, 424.290 48, 428.816 48 C 431.589 48, 432 47.660, 432 45.364 C 432 42.796, 431.877 42.745, 427.250 43.367 C 420.069 44.333, 413.563 46.974, 408.007 51.180 L 403 54.969 403 27.485 L 403 0 397.469 0 C 393.628 0, 391.772 0.431, 391.395 1.412 M 67.509 3.197 C 67.251 3.914, 66.918 25.650, 66.770 51.500 L 66.500 98.500 63.095 105.766 C 59.430 113.586, 53.361 120.115, 47.472 122.576 C 42.784 124.535, 35.309 124.324, 30.399 122.094 C 21.237 117.933, 13.325 105.673, 12.266 93.998 L 11.722 88 35.861 88 L 60 88 60 84.500 L 60 81 30 81 L 0 81 0 86.911 C 0 93.714, 2.621 102.971, 6.348 109.331 C 10.133 115.789, 19.048 123.487, 25.753 126.086 C 33.396 129.049, 44.474 129.249, 51.739 126.555 C 62.763 122.468, 72.220 112.606, 76.246 101 C 78.458 94.621, 78.500 93.641, 78.500 48.500 L 78.500 2.500 73.239 2.197 C 69.598 1.988, 67.833 2.296, 67.509 3.197 M 169 46.790 C 169 95.506, 169.249 98.175, 174.735 108.255 C 180.346 118.564, 193.059 127.345, 203.597 128.192 C 206.598 128.433, 207.507 128.120, 207.789 126.747 C 207.986 125.783, 207.552 124.820, 206.824 124.607 C 195.539 121.310, 189.462 116.224, 184.595 106 L 181.500 99.500 181.214 50.750 L 180.928 2 174.964 2 L 169 2 169 46.790 M 335.338 45.001 C 325.361 48.268, 316.741 55.649, 311.984 65 C 300.866 86.855, 309.321 113.152, 330.725 123.291 C 336.809 126.173, 338.417 126.498, 346.500 126.477 C 354.123 126.457, 356.380 126.045, 361.253 123.781 C 372.460 118.574, 382.426 106.146, 384.530 94.750 L 385.223 91 379.630 91 C 374.344 91, 374.005 91.150, 373.430 93.750 C 371.918 100.592, 369.670 106.112, 366.686 110.309 C 360.854 118.511, 354.759 122.004, 346.300 121.991 C 341.706 121.983, 339.421 121.362, 335.313 119.006 C 329.346 115.584, 326.221 111.853, 322.290 103.458 C 319.703 97.934, 319.500 96.589, 319.500 85 C 319.500 73.471, 319.712 72.047, 322.234 66.664 C 326.155 58.296, 330.299 53.528, 336.218 50.579 C 342.134 47.631, 349.122 47.189, 354.472 49.424 C 362.535 52.793, 370.470 63.402, 372.940 74.115 C 374.922 82.710, 377.032 82, 349.500 82 L 325 82 325 85 L 325 88 355.629 88 L 386.258 88 385.582 82.018 C 383.087 59.969, 368.274 44.751, 348.001 43.413 C 343.252 43.099, 339.839 43.527, 335.338 45.001 M 113.500 46.399 C 107.585 48.270, 103.364 50.676, 98.856 54.749 C 84.596 67.632, 80.628 87.868, 88.904 105.500 C 93.098 114.435, 98.858 120.326, 107.646 124.669 C 114.497 128.055, 115.883 128.381, 123.330 128.348 C 132.653 128.308, 137.989 126.664, 145.513 121.514 C 153.779 115.857, 161.096 104.400, 162.150 95.467 L 162.500 92.500 157.076 92.500 L 151.651 92.500 150.516 97.541 C 148.012 108.656, 141.912 117.370, 133.805 121.410 C 118.586 128.994, 102.884 119.008, 97.495 98.320 C 92.743 80.075, 100.299 59.096, 114.210 51.915 C 119.279 49.299, 128.054 49.364, 133.621 52.058 C 141.977 56.104, 149.432 67.408, 150.677 77.923 L 151.279 83 127.139 83 L 103 83 103 86.500 L 103 90 133.134 90 L 163.269 90 162.752 83.250 C 161.425 65.908, 150.547 51.762, 134.760 46.848 C 127.975 44.736, 119.334 44.554, 113.500 46.399" stroke="none" fill="#1f3025" fill-rule="evenodd"/>
</svg>
